<?xml version="1.0" encoding="utf-8"?>
<!-- Generator: Adobe Illustrator 20.1.0, SVG Export Plug-In . SVG Version: 6.00 Build 0)  -->
<svg version="1.1" id="Layer_1" xmlns="http://www.w3.org/2000/svg" xmlns:xlink="http://www.w3.org/1999/xlink" x="0px" y="0px"
	 viewBox="0 0 214 72" style="enable-background:new 0 0 214 72;" xml:space="preserve">
<style type="text/css">
	.st0{fill:#FFFFFF;}
</style>
<g>
	<path d="M107.7,48.9c-9.4,0-17.2-6.8-18.9-15.7c-0.4-2.4-0.4-4.7,0.1-7.1c2.1-9.8,11.9-19.8,18.8-25.8c5.5,4.8,16.1,15.5,18.7,24.7
		c0.7,2.6,0.7,5.6,0.2,8.2C125,42.1,117.1,48.9,107.7,48.9L107.7,48.9z"/>
	<path d="M19.9,26.7c0-1.1,0-2,0-2.8c0-0.7,0-1.3,0-1.7c0-0.4,0-0.8,0-1.1c0-0.3,0-0.5,0-0.7c0-0.5,0.1-0.9,0.3-1.1
		c0.1-0.3,0.4-0.4,0.8-0.5c0.2,0,0.3-0.1,0.4-0.1c0.1,0,0.2,0,0.3,0c0.2,0,0.2-0.1,0.2-0.2c0-0.2-0.2-0.2-0.5-0.2
		c-0.2,0-0.5,0-0.8,0c-0.3,0-0.6,0-0.9,0c-0.3,0-0.5,0-0.8,0c-0.2,0-0.4,0-0.4,0s-0.2,0-0.4,0c-0.2,0-0.5,0-0.8,0c-0.3,0-0.7,0-1,0
		c-0.4,0-0.7,0-1,0c-0.3,0-0.5,0.1-0.5,0.2c0,0.1,0.1,0.2,0.2,0.2c0.1,0,0.3,0,0.5,0s0.4,0,0.5,0.1c0.5,0.1,0.8,0.3,1,0.5
		s0.3,0.6,0.3,1.1c0,0.2,0,0.5,0,0.7c0,0.3,0,0.6,0,1.1c0,0.4,0,1,0,1.7c0,0.7,0,1.6,0,2.8v0.6c0,0.1-0.1,0.2-0.2,0.2H4.9
		c-0.1,0-0.2-0.1-0.2-0.2v-0.6c0-1.1,0-2,0-2.8c0-0.7,0-1.3,0-1.7c0-0.4,0-0.8,0-1.1c0-0.3,0-0.5,0-0.7c0-0.5,0.1-0.9,0.3-1.1
		c0.1-0.3,0.4-0.4,0.8-0.5c0.2,0,0.3-0.1,0.4-0.1c0.1,0,0.2,0,0.3,0c0.2,0,0.2-0.1,0.2-0.2c0-0.2-0.2-0.2-0.5-0.2
		c-0.2,0-0.5,0-0.8,0c-0.3,0-0.6,0-0.9,0c-0.3,0-0.5,0-0.8,0c-0.2,0-0.4,0-0.4,0s-0.2,0-0.4,0c-0.2,0-0.5,0-0.8,0c-0.3,0-0.7,0-1,0
		c-0.4,0-0.7,0-1,0c-0.3,0-0.5,0.1-0.5,0.2c0,0.1,0.1,0.2,0.2,0.2c0.1,0,0.3,0,0.5,0c0.2,0,0.4,0,0.5,0.1c0.5,0.1,0.8,0.3,1,0.5
		s0.3,0.6,0.3,1.1c0,0.2,0,0.5,0,0.7c0,0.3,0,0.6,0,1.1c0,0.4,0,1,0,1.7c0,0.7,0,1.6,0,2.8v5.1c0,1.4,0,2.6,0,3.7
		c0,1.1-0.1,2-0.1,2.6c-0.1,0.4-0.1,0.8-0.2,1.1c-0.1,0.3-0.3,0.5-0.6,0.5c-0.1,0-0.3,0.1-0.4,0.1s-0.3,0-0.4,0
		c-0.2,0-0.2,0.1-0.2,0.2c0,0.2,0.2,0.2,0.5,0.2c0.2,0,0.5,0,0.8,0s0.6,0,0.9,0c0.3,0,0.5,0,0.8,0c0.2,0,0.4,0,0.4,0s0.2,0,0.4,0
		c0.2,0,0.5,0,0.8,0s0.7,0,1.1,0c0.4,0,0.8,0,1.2,0c0.3,0,0.5-0.1,0.5-0.2c0-0.1-0.1-0.2-0.2-0.2c-0.1,0-0.3,0-0.6,0
		c-0.3,0-0.5,0-0.7-0.1c-0.4-0.1-0.7-0.2-0.9-0.5c-0.1-0.3-0.2-0.6-0.3-1.1c-0.1-0.6-0.1-1.5-0.1-2.6c0-1.1,0-2.3,0-3.7v-3
		c0-0.1,0.1-0.2,0.2-0.2h12.3c0.1,0,0.2,0.1,0.2,0.2v3c0,1.4,0,2.6,0,3.7c0,1.1-0.1,2-0.1,2.6c-0.1,0.4-0.1,0.8-0.2,1.1
		c-0.1,0.3-0.3,0.5-0.6,0.5c-0.1,0-0.3,0.1-0.4,0.1s-0.3,0-0.4,0c-0.2,0-0.2,0.1-0.2,0.2c0,0.2,0.2,0.2,0.5,0.2c0.2,0,0.5,0,0.8,0
		c0.3,0,0.6,0,0.9,0s0.5,0,0.8,0s0.4,0,0.4,0c0,0,0.2,0,0.4,0s0.5,0,0.8,0s0.7,0,1.1,0c0.4,0,0.8,0,1.2,0c0.3,0,0.5-0.1,0.5-0.2
		c0-0.1-0.1-0.2-0.2-0.2c-0.1,0-0.3,0-0.6,0c-0.3,0-0.5,0-0.7-0.1c-0.4-0.1-0.7-0.2-0.9-0.5c-0.1-0.3-0.2-0.6-0.3-1.1
		c-0.1-0.6-0.1-1.5-0.1-2.6c0-1.1,0-2.3,0-3.7L19.9,26.7L19.9,26.7z M32.8,29.2c0,1.3,0.2,2.6,0.6,4c0.4,1.3,1.1,2.6,2,3.7
		c0.9,1.1,2.1,2,3.5,2.7c1.4,0.7,3.1,1,5.1,1c1.7,0,3.3-0.3,4.8-0.9c1.4-0.6,2.7-1.5,3.7-2.6c1-1.1,1.8-2.3,2.3-3.8
		c0.6-1.4,0.8-3,0.8-4.6c0-1.7-0.3-3.2-0.9-4.5s-1.4-2.5-2.4-3.4c-1-0.9-2.2-1.7-3.6-2.2c-1.4-0.5-2.9-0.8-4.5-0.8
		c-1.3,0-2.5,0.2-3.6,0.5c-1.1,0.3-2.1,0.8-2.9,1.4s-1.6,1.3-2.2,2c-0.6,0.8-1.1,1.6-1.5,2.4s-0.7,1.7-0.9,2.6
		C32.9,27.6,32.8,28.5,32.8,29.2L32.8,29.2z M35.5,28.4c0-1.6,0.2-3,0.6-4.2c0.4-1.2,1-2.2,1.8-3c0.8-0.8,1.7-1.4,2.7-1.8
		s2.2-0.6,3.4-0.6c1.1,0,2.2,0.2,3.3,0.7c1.1,0.5,2,1.1,2.8,2c0.8,0.9,1.5,2,2,3.4c0.5,1.3,0.7,2.9,0.7,4.6c0,2.1-0.3,3.8-0.9,5.1
		c-0.6,1.3-1.3,2.3-2.1,3c-0.8,0.7-1.7,1.2-2.6,1.4c-0.9,0.2-1.7,0.4-2.4,0.4c-1.3,0-2.5-0.3-3.7-0.8c-1.1-0.5-2.1-1.3-2.9-2.2
		s-1.5-2.1-2-3.5C35.8,31.6,35.5,30.1,35.5,28.4L35.5,28.4z M74.7,19.5l3.7,0.1c0.7,0,1.3,0.1,1.7,0.2c0.5,0.1,0.8,0.2,1.1,0.3
		c0.3,0.1,0.5,0.3,0.6,0.5c0.1,0.2,0.2,0.4,0.2,0.6l0,0.3c0,0.2,0,0.3,0.1,0.4c0,0.1,0.1,0.1,0.2,0.1c0.1,0,0.2-0.1,0.2-0.4
		c0-0.1,0-0.2,0-0.5c0-0.3,0-0.6,0-0.9s0-0.7,0-1c0-0.3,0-0.6,0-0.8c0-0.1,0-0.2,0-0.2s-0.1-0.1-0.1-0.1c-0.1,0-0.2,0-0.3,0
		c-0.1,0-0.3,0.1-0.5,0.1c-0.2,0-0.5,0.1-0.9,0.1s-0.7,0-1.2,0H68.5c-0.2,0-0.5,0-1,0s-0.9-0.1-1.3-0.1c-0.4,0-0.7-0.1-0.9-0.2
		c-0.2-0.1-0.3-0.1-0.4-0.1c-0.1,0-0.1,0.1-0.2,0.2c0,0.1-0.1,0.3-0.1,0.3c0,0.1-0.1,0.2-0.1,0.5c-0.1,0.3-0.1,0.6-0.2,1
		c-0.1,0.3-0.1,0.7-0.2,1c-0.1,0.3-0.1,0.5-0.1,0.6c0,0.2,0,0.3,0.1,0.3c0.1,0,0.2-0.1,0.3-0.3c0-0.1,0.1-0.2,0.2-0.3
		c0.1-0.1,0.2-0.3,0.3-0.6c0.1-0.2,0.3-0.3,0.4-0.4c0.2-0.1,0.3-0.2,0.6-0.3c0.2-0.1,0.5-0.1,0.8-0.2c0.3,0,0.7-0.1,1.1-0.1l4.3-0.1
		v12.3c0,1.4,0,2.6,0,3.7c0,1.1-0.1,2-0.1,2.6c-0.1,0.4-0.1,0.8-0.2,1.1c-0.1,0.3-0.3,0.5-0.6,0.5c-0.1,0-0.3,0.1-0.4,0.1
		c-0.2,0-0.3,0-0.4,0c-0.2,0-0.2,0.1-0.2,0.2c0,0.2,0.2,0.2,0.5,0.2c0.2,0,0.5,0,0.8,0s0.6,0,0.9,0s0.5,0,0.8,0s0.4,0,0.4,0
		s0.2,0,0.4,0s0.5,0,0.8,0s0.7,0,1.1,0c0.4,0,0.8,0,1.2,0c0.3,0,0.5-0.1,0.5-0.2c0-0.1-0.1-0.2-0.2-0.2c-0.1,0-0.3,0-0.6,0
		s-0.5,0-0.7-0.1c-0.4-0.1-0.7-0.2-0.9-0.5c-0.1-0.3-0.2-0.6-0.3-1.1c-0.1-0.6-0.1-1.5-0.1-2.6c0-1.1,0-2.3,0-3.7L74.7,19.5
		L74.7,19.5z"/>
	<path d="M149.4,19.8c-0.2-0.5-0.3-0.9-0.4-1.1c-0.1-0.2-0.2-0.3-0.3-0.3c-0.1,0-0.2,0.1-0.3,0.2c-0.1,0.1-0.2,0.5-0.4,1.1
		l-6.2,16.6h-0.1c-0.1-0.3-0.2-0.7-0.4-1.4c-0.2-0.7-0.4-1.5-0.7-2.5c-0.3-0.9-0.6-1.9-0.8-3c-0.3-1.1-0.6-2.1-0.8-3
		c-0.3-1-0.5-1.8-0.7-2.6c-0.2-0.7-0.3-1.3-0.4-1.6c-0.2-0.6-0.3-1.2-0.4-1.7c-0.1-0.5-0.2-0.8-0.2-1c0-0.2,0-0.3,0.1-0.5
		s0.2-0.2,0.3-0.2c0.2-0.1,0.4-0.1,0.6-0.2s0.4,0,0.5,0c0.2,0,0.3-0.1,0.3-0.2c0-0.1,0-0.1-0.1-0.1c-0.1,0-0.2-0.1-0.4-0.1
		c-0.7,0-1.4,0-1.9,0s-0.9,0-1,0c-0.1,0-0.2,0-0.4,0c-0.2,0-0.5,0-0.8,0c-0.3,0-0.7,0-1,0c-0.4,0-0.8,0-1.1,0
		c-0.3,0-0.5,0.1-0.5,0.2c0,0.1,0.1,0.2,0.3,0.2c0.1,0,0.3,0,0.6,0c0.3,0,0.5,0.1,0.7,0.1c0.4,0.2,0.7,0.4,0.9,0.7
		c0.2,0.3,0.5,0.8,0.7,1.6l5.2,17.2c0.1,0.5,0.3,0.9,0.3,1.2s0.2,0.5,0.3,0.7c0.1,0.2,0.1,0.3,0.2,0.3c0.1,0.1,0.1,0.1,0.2,0.1
		c0.2,0,0.3-0.1,0.4-0.3c0.1-0.2,0.3-0.6,0.5-1.2c0.2-0.4,0.4-1.1,0.7-1.9c0.3-0.8,0.7-1.8,1.1-2.8c0.4-1,0.8-2.1,1.2-3.3
		s0.8-2.2,1.2-3.3c0.4-1,0.7-2,1.1-2.8c0.3-0.9,0.6-1.5,0.7-2h0.1l5.7,16.1c0.2,0.6,0.4,1,0.5,1.2c0.1,0.2,0.2,0.3,0.4,0.3
		c0.1,0,0.1,0,0.2-0.1c0.1-0.1,0.1-0.2,0.2-0.3c0.1-0.2,0.2-0.4,0.3-0.8c0.1-0.3,0.3-0.8,0.5-1.3c0.2-0.5,0.4-1.2,0.7-2.1
		c0.3-0.8,0.6-1.8,0.9-2.7c0.3-1,0.7-2,1-3.1s0.7-2.1,1-3.2c0.3-1,0.7-2,0.9-2.9c0.3-0.9,0.5-1.6,0.8-2.3c0.3-0.8,0.5-1.5,0.8-2.1
		c0.3-0.6,0.6-0.9,1.1-1.1c0.2-0.1,0.3-0.1,0.6-0.1c0.2,0,0.4,0,0.4,0c0.2,0,0.3-0.1,0.3-0.2c0-0.1-0.1-0.2-0.4-0.2
		c-0.2,0-0.5,0-0.7,0c-0.3,0-0.5,0-0.7,0c-0.2,0-0.4,0-0.6,0c-0.2,0-0.3,0-0.3,0c-0.1,0-0.5,0-1,0s-1.2,0-1.9,0
		c-0.3,0-0.5,0.1-0.5,0.2c0,0.1,0.1,0.2,0.3,0.2c0.7,0,1.1,0.1,1.3,0.2c0.2,0.2,0.3,0.4,0.3,0.6c0,0.2,0,0.4,0,0.7s-0.1,0.6-0.3,1.2
		c-0.2,0.6-0.4,1.4-0.6,2.2c-0.3,0.9-0.5,1.8-0.8,2.7c-0.3,0.9-0.6,1.9-0.9,2.9s-0.6,1.9-0.9,2.8c-0.3,0.9-0.5,1.7-0.7,2.4
		c-0.2,0.7-0.4,1.3-0.5,1.8h-0.1L149.4,19.8L149.4,19.8z M175.7,31.8c0,1.4,0,2.6,0,3.7c0,1.1-0.1,2-0.1,2.6
		c-0.1,0.4-0.1,0.8-0.2,1.1c-0.1,0.3-0.3,0.5-0.6,0.5c-0.1,0-0.3,0.1-0.4,0.1s-0.3,0-0.4,0c-0.2,0-0.2,0.1-0.2,0.2
		c0,0.2,0.2,0.2,0.5,0.2c0.2,0,0.5,0,0.8,0c0.3,0,0.6,0,0.9,0c0.3,0,0.6,0,0.8,0s0.3,0,0.4,0c0.2,0,0.5,0,0.9,0s0.8,0,1.4,0.1
		c0.6,0,1.2,0,2,0.1c0.8,0,1.8,0,2.9,0c0.3,0,0.5,0,0.7,0c0.2,0,0.3,0,0.4-0.1c0.1,0,0.2-0.1,0.3-0.2c0.1-0.1,0.1-0.2,0.2-0.4
		c0-0.2,0.1-0.4,0.1-0.7c0-0.3,0.1-0.6,0.1-0.9c0-0.3,0.1-0.6,0.1-0.8c0-0.2,0-0.4,0-0.5c0-0.1,0-0.2,0-0.3s-0.1-0.1-0.2-0.1
		c-0.1,0-0.2,0.1-0.3,0.4c-0.1,0.6-0.2,1.1-0.4,1.4c-0.2,0.3-0.5,0.6-0.9,0.7c-0.4,0.2-0.9,0.2-1.4,0.3c-0.5,0-1,0-1.4,0
		c-0.7,0-1.3,0-1.7-0.1c-0.4-0.1-0.8-0.2-1-0.3c-0.2-0.2-0.4-0.4-0.5-0.7c-0.1-0.3-0.1-0.7-0.2-1.2c0-0.2,0-0.5,0-0.9
		c0-0.4,0-0.9,0-1.5c0-0.5,0-1,0-1.5c0-0.5,0-0.9,0-1.1v-2.6c0-0.1,0.1-0.2,0.2-0.2c0.1,0,0.4,0,0.7,0c0.4,0,0.8,0,1.2,0
		c0.4,0,0.9,0,1.3,0c0.4,0,0.7,0,0.9,0.1c0.6,0.1,0.9,0.2,1.1,0.4c0.2,0.2,0.3,0.4,0.4,0.6c0.1,0.2,0.1,0.4,0.1,0.5
		c0,0.1,0,0.3,0,0.5c0,0.2,0.1,0.3,0.2,0.3c0.1,0,0.2-0.1,0.2-0.2c0-0.1,0-0.2,0-0.4c0-0.1,0-0.2,0-0.3s0-0.3,0-0.5
		c0-0.2,0-0.4,0-0.6c0-0.2,0-0.4,0-0.5c0-0.5,0.1-0.9,0.1-1.1c0.1-0.3,0.1-0.4,0.1-0.5c0-0.2,0-0.2-0.1-0.2c-0.1,0-0.2,0.1-0.4,0.4
		c-0.1,0.2-0.3,0.3-0.5,0.3s-0.5,0.1-0.8,0.1c-0.2,0-0.5,0-1,0c-0.5,0-1,0-1.5,0c-0.5,0-1,0-1.4,0c-0.4,0-0.7,0-0.8,0
		c-0.1,0-0.2-0.1-0.2-0.3v-8c0-0.2,0.1-0.3,0.2-0.3c0.1,0,0.3,0,0.7,0c0.4,0,0.8,0,1.3,0c0.4,0,0.9,0,1.3,0c0.4,0,0.7,0,0.8,0
		c0.8,0.1,1.3,0.2,1.5,0.4c0.3,0.2,0.4,0.4,0.5,0.6c0.1,0.2,0.1,0.4,0.1,0.6c0,0.2,0,0.4,0,0.5c0,0.3,0.1,0.4,0.2,0.4
		c0.1,0,0.1,0,0.1-0.1c0-0.1,0.1-0.1,0.1-0.2s0-0.2,0-0.4c0-0.2,0-0.4,0-0.6c0-0.2,0-0.4,0-0.6c0-0.2,0-0.3,0-0.4
		c0-0.4,0.1-0.7,0.1-0.9c0.1-0.2,0.1-0.4,0.1-0.5c0-0.2,0-0.3-0.1-0.3c-0.1,0-0.1,0-0.2,0.1c-0.1,0-0.1,0.1-0.2,0.1
		c-0.3,0.1-0.7,0.1-1.2,0.1c-0.2,0-0.6,0-1.3,0c-0.7,0-1.4,0-2.2,0c-0.8,0-1.5,0-2.1,0c-0.6,0-1,0-1,0l-1.2-0.1c-0.3,0-0.7,0-1,0
		c-0.4,0-0.7,0-1,0c-0.3,0-0.5,0.1-0.5,0.2c0,0.1,0.1,0.2,0.2,0.2c0.1,0,0.3,0,0.5,0c0.2,0,0.4,0,0.5,0.1c0.5,0.1,0.8,0.3,1,0.5
		c0.2,0.3,0.3,0.6,0.3,1.1c0,0.2,0,0.5,0,0.7c0,0.3,0,0.6,0,1.1c0,0.4,0,1,0,1.7c0,0.7,0,1.6,0,2.8L175.7,31.8L175.7,31.8z
		 M206.2,19.5l3.7,0.1c0.7,0,1.3,0.1,1.7,0.2c0.5,0.1,0.8,0.2,1.1,0.3c0.3,0.1,0.4,0.3,0.6,0.5c0.1,0.2,0.2,0.4,0.2,0.6l0,0.3
		c0,0.2,0,0.3,0.1,0.4c0,0.1,0.1,0.1,0.2,0.1c0.1,0,0.2-0.1,0.2-0.4c0-0.1,0-0.2,0-0.5c0-0.3,0-0.6,0-0.9c0-0.3,0-0.7,0-1
		c0-0.3,0-0.6,0-0.8c0-0.1,0-0.2,0-0.2c0-0.1-0.1-0.1-0.1-0.1c-0.1,0-0.2,0-0.3,0s-0.3,0.1-0.5,0.1c-0.2,0-0.5,0.1-0.9,0.1
		s-0.7,0-1.2,0h-10.9c-0.2,0-0.5,0-1,0c-0.5,0-0.9-0.1-1.3-0.1c-0.4,0-0.7-0.1-0.9-0.2c-0.2-0.1-0.3-0.1-0.4-0.1
		c-0.1,0-0.1,0.1-0.2,0.2c0,0.1-0.1,0.3-0.1,0.3c0,0.1-0.1,0.2-0.1,0.5c-0.1,0.3-0.1,0.6-0.2,1c-0.1,0.3-0.1,0.7-0.2,1
		s-0.1,0.5-0.1,0.6c0,0.2,0,0.3,0.1,0.3c0.1,0,0.2-0.1,0.3-0.3c0-0.1,0.1-0.2,0.2-0.3c0.1-0.1,0.2-0.3,0.3-0.6
		c0.1-0.2,0.3-0.3,0.4-0.4c0.2-0.1,0.3-0.2,0.6-0.3c0.2-0.1,0.5-0.1,0.8-0.2c0.3,0,0.7-0.1,1.1-0.1l4.3-0.1v12.3c0,1.4,0,2.6,0,3.7
		c0,1.1-0.1,2-0.1,2.6c-0.1,0.4-0.1,0.8-0.2,1.1c-0.1,0.3-0.3,0.5-0.6,0.5c-0.1,0-0.3,0.1-0.4,0.1s-0.3,0-0.4,0
		c-0.2,0-0.2,0.1-0.2,0.2c0,0.2,0.2,0.2,0.5,0.2c0.2,0,0.5,0,0.8,0s0.6,0,0.9,0c0.3,0,0.5,0,0.8,0s0.4,0,0.4,0s0.2,0,0.4,0
		s0.5,0,0.8,0c0.3,0,0.7,0,1.1,0c0.4,0,0.8,0,1.2,0c0.3,0,0.5-0.1,0.5-0.2c0-0.1-0.1-0.2-0.2-0.2c-0.1,0-0.3,0-0.6,0
		c-0.3,0-0.5,0-0.7-0.1c-0.4-0.1-0.7-0.2-0.9-0.5c-0.1-0.3-0.2-0.6-0.3-1.1c-0.1-0.6-0.1-1.5-0.1-2.6c0-1.1,0-2.3,0-3.7L206.2,19.5
		L206.2,19.5z"/>
	<path d="M55.8,72c0.3,0,0.6,0,0.9-0.1c0.3-0.1,0.6-0.2,0.8-0.4c0.2-0.1,0.4-0.3,0.5-0.5c0.1-0.2,0.2-0.3,0.3-0.5
		c0.1-0.2,0.1-0.3,0.1-0.5c0-0.2,0-0.3,0-0.4c0-0.2,0-0.4-0.1-0.7c0-0.2-0.1-0.4-0.3-0.6c-0.1-0.2-0.3-0.4-0.5-0.7s-0.5-0.5-0.8-0.7
		l-0.3-0.3c-0.3-0.2-0.5-0.4-0.7-0.6c-0.2-0.2-0.3-0.3-0.4-0.5c-0.1-0.1-0.2-0.3-0.2-0.4c0-0.1-0.1-0.3-0.1-0.4c0-0.4,0.1-0.7,0.4-1
		c0.3-0.2,0.6-0.3,1-0.3c0.3,0,0.5,0,0.6,0.1c0.2,0,0.3,0.1,0.4,0.2c0.1,0.1,0.2,0.1,0.2,0.2c0.1,0.1,0.1,0.1,0.1,0.1
		c0,0.1,0.1,0.2,0.1,0.3s0,0.2,0.1,0.3c0,0,0,0.1,0,0.1s0,0,0.1,0c0.1,0,0.1-0.1,0.1-0.3c0-0.4,0-0.7,0-0.9c0-0.2,0-0.3,0-0.3
		c0-0.1,0-0.1-0.1-0.1c0,0-0.1,0-0.2,0c-0.1,0-0.1,0-0.2,0c-0.1,0-0.3-0.1-0.5-0.1s-0.4,0-0.6,0c-0.4,0-0.7,0-1,0.1
		c-0.3,0.1-0.5,0.2-0.7,0.4c-0.2,0.2-0.4,0.4-0.5,0.6c-0.1,0.3-0.2,0.5-0.2,0.8c0,0.2,0,0.4,0.1,0.6s0.1,0.4,0.2,0.6
		c0.1,0.2,0.3,0.4,0.5,0.6c0.2,0.2,0.4,0.4,0.7,0.7l0.5,0.4c0.2,0.2,0.4,0.4,0.6,0.6c0.2,0.2,0.3,0.3,0.4,0.5
		c0.1,0.2,0.2,0.3,0.2,0.5c0,0.2,0.1,0.3,0.1,0.5c0,0.2,0,0.4-0.1,0.5c-0.1,0.2-0.2,0.3-0.3,0.5c-0.1,0.1-0.3,0.3-0.5,0.3
		c-0.2,0.1-0.4,0.1-0.7,0.1c-0.2,0-0.4,0-0.6-0.1c-0.2,0-0.4-0.1-0.5-0.2c-0.2-0.1-0.3-0.2-0.4-0.4c-0.1-0.1-0.2-0.3-0.2-0.5
		c0-0.1,0-0.2,0-0.2c0-0.1,0-0.1,0-0.2c0-0.1,0-0.1-0.1-0.1s-0.1,0.1-0.1,0.2c0,0.1,0,0.2,0,0.5c0,0.2,0,0.5,0,0.8
		c0,0.2,0,0.3,0,0.3c0,0.1,0.1,0.1,0.1,0.1c0.2,0.1,0.5,0.2,0.7,0.2C55.3,72,55.6,72,55.8,72L55.8,72z M71.4,63.8
		c-0.1-0.2-0.1-0.3-0.2-0.4s-0.1-0.1-0.1-0.1s-0.1,0-0.1,0.1c0,0.1-0.1,0.2-0.2,0.4l-2.4,6.5h0c0-0.1-0.1-0.3-0.2-0.6
		c-0.1-0.3-0.2-0.6-0.3-1c-0.1-0.4-0.2-0.8-0.3-1.2s-0.2-0.8-0.3-1.2c-0.1-0.4-0.2-0.7-0.3-1c-0.1-0.3-0.1-0.5-0.2-0.6
		c-0.1-0.3-0.1-0.5-0.2-0.7c0-0.2-0.1-0.3-0.1-0.4s0-0.1,0-0.2c0,0,0.1-0.1,0.1-0.1c0.1,0,0.1-0.1,0.2-0.1c0.1,0,0.2,0,0.2,0
		c0.1,0,0.1,0,0.1-0.1c0,0,0,0,0-0.1c0,0-0.1,0-0.2,0c-0.3,0-0.5,0-0.8,0c-0.2,0-0.4,0-0.4,0c0,0-0.1,0-0.2,0c-0.1,0-0.2,0-0.3,0
		c-0.1,0-0.3,0-0.4,0c-0.1,0-0.3,0-0.4,0c-0.1,0-0.2,0-0.2,0.1c0,0.1,0,0.1,0.1,0.1c0,0,0.1,0,0.2,0s0.2,0,0.3,0.1
		c0.1,0.1,0.3,0.1,0.4,0.3c0.1,0.1,0.2,0.3,0.3,0.6l2,6.8c0.1,0.2,0.1,0.4,0.1,0.5c0,0.1,0.1,0.2,0.1,0.3C68,71.9,68,72,68,72
		s0,0,0.1,0c0.1,0,0.1,0,0.2-0.1c0-0.1,0.1-0.2,0.2-0.5c0.1-0.2,0.2-0.4,0.3-0.8c0.1-0.3,0.3-0.7,0.4-1.1c0.2-0.4,0.3-0.8,0.5-1.3
		c0.2-0.4,0.3-0.9,0.5-1.3c0.2-0.4,0.3-0.8,0.4-1.1s0.2-0.6,0.3-0.8h0l2.2,6.3c0.1,0.2,0.1,0.4,0.2,0.5c0,0.1,0.1,0.1,0.2,0.1
		c0,0,0.1,0,0.1,0c0,0,0.1-0.1,0.1-0.1c0-0.1,0.1-0.2,0.1-0.3s0.1-0.3,0.2-0.5c0.1-0.2,0.2-0.5,0.3-0.8c0.1-0.3,0.2-0.7,0.4-1.1
		s0.3-0.8,0.4-1.2c0.1-0.4,0.3-0.8,0.4-1.2c0.1-0.4,0.3-0.8,0.4-1.1s0.2-0.6,0.3-0.9c0.1-0.3,0.2-0.6,0.3-0.8
		c0.1-0.2,0.2-0.4,0.4-0.4c0.1,0,0.1,0,0.2,0s0.1,0,0.2,0c0.1,0,0.1,0,0.1-0.1c0,0-0.1-0.1-0.2-0.1c-0.1,0-0.2,0-0.3,0
		c-0.1,0-0.2,0-0.3,0c-0.1,0-0.2,0-0.2,0c-0.1,0-0.1,0-0.1,0c-0.1,0-0.2,0-0.4,0c-0.2,0-0.5,0-0.8,0c-0.1,0-0.2,0-0.2,0.1
		c0,0.1,0,0.1,0.1,0.1c0.3,0,0.4,0,0.5,0.1c0.1,0.1,0.1,0.1,0.1,0.3c0,0.1,0,0.2,0,0.3c0,0.1,0,0.3-0.1,0.5
		c-0.1,0.2-0.2,0.5-0.3,0.9c-0.1,0.3-0.2,0.7-0.3,1.1s-0.2,0.7-0.3,1.1c-0.1,0.4-0.2,0.7-0.3,1.1c-0.1,0.3-0.2,0.7-0.3,1
		c-0.1,0.3-0.2,0.5-0.2,0.7h0L71.4,63.8L71.4,63.8z M85.2,66.6c0-0.4,0-0.8,0-1.1c0-0.3,0-0.5,0-0.7c0-0.2,0-0.3,0-0.4
		c0-0.1,0-0.2,0-0.3c0-0.2,0.1-0.3,0.1-0.5c0.1-0.1,0.2-0.2,0.3-0.2c0.1,0,0.1,0,0.2,0c0,0,0.1,0,0.1,0c0.1,0,0.1,0,0.1-0.1
		c0-0.1-0.1-0.1-0.2-0.1c-0.1,0-0.2,0-0.3,0c-0.1,0-0.2,0-0.4,0c-0.1,0-0.2,0-0.3,0c-0.1,0-0.1,0-0.2,0s-0.1,0-0.2,0
		c-0.1,0-0.2,0-0.3,0c-0.1,0-0.2,0-0.4,0c-0.1,0-0.2,0-0.3,0c-0.1,0-0.2,0-0.2,0.1c0,0,0,0.1,0.1,0.1c0,0,0.1,0,0.2,0
		c0.1,0,0.1,0,0.2,0c0.2,0.1,0.4,0.3,0.4,0.6c0,0.1,0,0.2,0,0.3c0,0.1,0,0.2,0,0.4c0,0.2,0,0.4,0,0.7c0,0.3,0,0.6,0,1.1v2
		c0,0.5,0,1,0,1.5c0,0.4,0,0.8-0.1,1c0,0.2-0.1,0.3-0.1,0.4c0,0.1-0.1,0.2-0.2,0.2c-0.1,0-0.1,0-0.2,0s-0.1,0-0.2,0
		c-0.1,0-0.1,0-0.1,0.1c0,0.1,0.1,0.1,0.2,0.1c0.1,0,0.2,0,0.3,0s0.2,0,0.4,0s0.2,0,0.3,0c0.1,0,0.1,0,0.2,0s0.1,0,0.2,0
		s0.2,0,0.3,0c0.1,0,0.3,0,0.4,0s0.3,0,0.5,0c0.1,0,0.2,0,0.2-0.1c0,0,0-0.1-0.1-0.1c-0.1,0-0.1,0-0.2,0s-0.2,0-0.3,0
		c-0.2,0-0.3-0.1-0.3-0.2c-0.1-0.1-0.1-0.3-0.1-0.4c0-0.2,0-0.6-0.1-1c0-0.4,0-0.9,0-1.5L85.2,66.6L85.2,66.6z M102,63.4
		c0-0.2-0.1-0.3-0.1-0.3c-0.1,0-0.1,0.1-0.2,0.2l-3.3,7.2l-3.5-7.2c-0.1-0.1-0.1-0.2-0.2-0.2c-0.1,0-0.1,0.1-0.1,0.2l-0.8,7.4
		c0,0.2-0.1,0.4-0.1,0.6c0,0.2-0.2,0.3-0.4,0.3c-0.1,0-0.2,0-0.2,0c0,0-0.1,0-0.1,0c-0.1,0-0.1,0-0.1,0.1c0,0.1,0.1,0.1,0.2,0.1
		c0.1,0,0.2,0,0.3,0c0.1,0,0.2,0,0.3,0s0.2,0,0.3,0c0.1,0,0.1,0,0.1,0s0.1,0,0.1,0s0.2,0,0.3,0s0.2,0,0.3,0c0.1,0,0.2,0,0.3,0
		c0.1,0,0.2,0,0.2-0.1c0,0,0-0.1-0.1-0.1c0,0-0.1,0-0.2,0c-0.1,0-0.2,0-0.3,0c-0.1,0-0.2-0.1-0.2-0.1c-0.1-0.1-0.1-0.1-0.1-0.2
		c0-0.1,0-0.2,0-0.3c0-0.1,0-0.2,0-0.3l0.5-5.3h0c0,0.1,0.1,0.2,0.1,0.3c0.1,0.2,0.2,0.4,0.3,0.6s0.2,0.5,0.3,0.7s0.2,0.5,0.3,0.7
		c0.1,0.2,0.2,0.4,0.3,0.6c0.1,0.2,0.1,0.3,0.1,0.3c0,0,0.1,0.2,0.2,0.4s0.2,0.5,0.4,0.8c0.1,0.3,0.3,0.6,0.4,0.9
		c0.1,0.3,0.2,0.5,0.3,0.6c0.1,0.2,0.2,0.3,0.2,0.4c0,0.1,0.1,0.1,0.1,0.1c0.1,0,0.1,0,0.1-0.1c0-0.1,0.1-0.2,0.2-0.5l2.8-5.9h0
		l0.5,5.9c0,0.1,0,0.2,0,0.3c0,0.1,0,0.1-0.1,0.1c-0.1,0-0.1,0-0.1,0.1c0,0,0,0.1,0.1,0.1c0,0,0.1,0,0.3,0c0.1,0,0.3,0,0.4,0
		s0.4,0,0.6,0c0.2,0,0.4,0,0.5,0c0.2,0,0.3,0,0.3,0c0.1,0,0.1,0,0.2,0c0,0,0.1,0,0.1-0.1s0-0.1-0.1-0.1c-0.1,0-0.2,0-0.3,0
		c-0.1,0-0.3,0-0.4-0.1c-0.1,0-0.2-0.1-0.3-0.2c-0.1-0.1-0.1-0.2-0.2-0.3c0-0.1-0.1-0.2-0.1-0.4s0-0.2,0-0.3L102,63.4L102,63.4z
		 M115.9,63.8c-0.1-0.2-0.1-0.3-0.2-0.4c0-0.1-0.1-0.1-0.1-0.1c0,0-0.1,0-0.1,0.1c0,0.1-0.1,0.2-0.2,0.4l-2.4,6.5h0
		c0-0.1-0.1-0.3-0.2-0.6c-0.1-0.3-0.2-0.6-0.3-1c-0.1-0.4-0.2-0.8-0.3-1.2c-0.1-0.4-0.2-0.8-0.3-1.2c-0.1-0.4-0.2-0.7-0.3-1
		c-0.1-0.3-0.1-0.5-0.2-0.6c-0.1-0.3-0.1-0.5-0.2-0.7c0-0.2-0.1-0.3-0.1-0.4s0-0.1,0-0.2s0.1-0.1,0.1-0.1c0.1,0,0.1-0.1,0.2-0.1
		c0.1,0,0.2,0,0.2,0c0.1,0,0.1,0,0.1-0.1c0,0,0,0,0-0.1c0,0-0.1,0-0.2,0c-0.3,0-0.5,0-0.8,0c-0.2,0-0.4,0-0.4,0c0,0-0.1,0-0.2,0
		c-0.1,0-0.2,0-0.3,0c-0.1,0-0.3,0-0.4,0c-0.1,0-0.3,0-0.4,0c-0.1,0-0.2,0-0.2,0.1c0,0.1,0,0.1,0.1,0.1c0,0,0.1,0,0.2,0
		s0.2,0,0.3,0.1c0.1,0.1,0.3,0.1,0.4,0.3c0.1,0.1,0.2,0.3,0.3,0.6l2,6.8c0.1,0.2,0.1,0.4,0.1,0.5c0,0.1,0.1,0.2,0.1,0.3
		c0,0.1,0.1,0.1,0.1,0.1s0,0,0.1,0c0.1,0,0.1,0,0.2-0.1c0-0.1,0.1-0.2,0.2-0.5c0.1-0.2,0.2-0.4,0.3-0.8c0.1-0.3,0.3-0.7,0.4-1.1
		c0.2-0.4,0.3-0.8,0.5-1.3c0.2-0.4,0.3-0.9,0.5-1.3c0.2-0.4,0.3-0.8,0.4-1.1s0.2-0.6,0.3-0.8h0l2.2,6.3c0.1,0.2,0.1,0.4,0.2,0.5
		c0,0.1,0.1,0.1,0.2,0.1c0,0,0.1,0,0.1,0c0,0,0.1-0.1,0.1-0.1c0-0.1,0.1-0.2,0.1-0.3c0-0.1,0.1-0.3,0.2-0.5c0.1-0.2,0.2-0.5,0.3-0.8
		c0.1-0.3,0.2-0.7,0.4-1.1s0.3-0.8,0.4-1.2c0.1-0.4,0.3-0.8,0.4-1.2c0.1-0.4,0.3-0.8,0.4-1.1c0.1-0.3,0.2-0.6,0.3-0.9
		c0.1-0.3,0.2-0.6,0.3-0.8c0.1-0.2,0.2-0.4,0.4-0.4c0.1,0,0.1,0,0.2,0c0.1,0,0.1,0,0.2,0c0.1,0,0.1,0,0.1-0.1c0,0-0.1-0.1-0.2-0.1
		c-0.1,0-0.2,0-0.3,0c-0.1,0-0.2,0-0.3,0c-0.1,0-0.2,0-0.2,0c-0.1,0-0.1,0-0.1,0c-0.1,0-0.2,0-0.4,0c-0.2,0-0.5,0-0.8,0
		c-0.1,0-0.2,0-0.2,0.1c0,0.1,0,0.1,0.1,0.1c0.3,0,0.4,0,0.5,0.1c0.1,0.1,0.1,0.1,0.1,0.3c0,0.1,0,0.2,0,0.3s0,0.3-0.1,0.5
		c-0.1,0.2-0.2,0.5-0.3,0.9s-0.2,0.7-0.3,1.1c-0.1,0.4-0.2,0.7-0.3,1.1c-0.1,0.4-0.2,0.7-0.3,1.1c-0.1,0.3-0.2,0.7-0.3,1
		c-0.1,0.3-0.2,0.5-0.2,0.7h0L115.9,63.8L115.9,63.8z M128.7,68.6c0,0.5,0,1,0,1.5c0,0.4,0,0.8-0.1,1c0,0.2-0.1,0.3-0.1,0.4
		c0,0.1-0.1,0.2-0.2,0.2c-0.1,0-0.1,0-0.2,0s-0.1,0-0.2,0c-0.1,0-0.1,0-0.1,0.1c0,0.1,0.1,0.1,0.2,0.1c0.1,0,0.2,0,0.3,0
		c0.1,0,0.2,0,0.4,0c0.1,0,0.2,0,0.3,0s0.1,0,0.1,0c0.1,0,0.2,0,0.3,0c0.1,0,0.3,0,0.5,0c0.2,0,0.5,0,0.8,0c0.3,0,0.7,0,1.1,0
		c0.1,0,0.2,0,0.3,0s0.1,0,0.2,0c0,0,0.1,0,0.1-0.1c0,0,0-0.1,0.1-0.2c0-0.1,0-0.1,0-0.3s0-0.2,0-0.3c0-0.1,0-0.2,0-0.3
		c0-0.1,0-0.2,0-0.2c0,0,0-0.1,0-0.1c0,0,0-0.1-0.1-0.1c0,0-0.1,0.1-0.1,0.2c0,0.2-0.1,0.4-0.2,0.5c-0.1,0.1-0.2,0.2-0.3,0.3
		c-0.2,0.1-0.3,0.1-0.5,0.1c-0.2,0-0.4,0-0.5,0c-0.3,0-0.5,0-0.7,0c-0.2,0-0.3-0.1-0.4-0.1c-0.1-0.1-0.2-0.2-0.2-0.3
		c0-0.1-0.1-0.3-0.1-0.5c0-0.1,0-0.2,0-0.4c0-0.2,0-0.4,0-0.6c0-0.2,0-0.4,0-0.6s0-0.3,0-0.4v-1c0-0.1,0-0.1,0.1-0.1
		c0,0,0.1,0,0.3,0c0.1,0,0.3,0,0.5,0c0.2,0,0.3,0,0.5,0c0.2,0,0.3,0,0.4,0c0.2,0,0.4,0.1,0.4,0.2c0.1,0.1,0.1,0.2,0.1,0.2
		c0,0.1,0,0.1,0,0.2c0,0.1,0,0.1,0,0.2c0,0.1,0,0.1,0.1,0.1c0,0,0.1,0,0.1-0.1c0-0.1,0-0.1,0-0.1c0,0,0-0.1,0-0.1c0-0.1,0-0.1,0-0.2
		c0-0.1,0-0.1,0-0.2c0-0.1,0-0.1,0-0.2c0-0.2,0-0.3,0.1-0.4s0-0.2,0-0.2c0-0.1,0-0.1-0.1-0.1c0,0-0.1,0-0.2,0.1
		c-0.1,0.1-0.1,0.1-0.2,0.1c-0.1,0-0.2,0-0.3,0c-0.1,0-0.2,0-0.4,0c-0.2,0-0.4,0-0.6,0c-0.2,0-0.4,0-0.5,0s-0.3,0-0.3,0
		c0,0-0.1,0-0.1-0.1v-3.1c0-0.1,0-0.1,0.1-0.1c0,0,0.1,0,0.3,0c0.2,0,0.3,0,0.5,0s0.3,0,0.5,0c0.2,0,0.3,0,0.3,0
		c0.3,0,0.5,0.1,0.6,0.2c0.1,0.1,0.2,0.1,0.2,0.2c0,0.1,0.1,0.1,0.1,0.2c0,0.1,0,0.1,0,0.2c0,0.1,0,0.1,0.1,0.1c0,0,0,0,0.1,0
		c0,0,0-0.1,0-0.1s0-0.1,0-0.2c0-0.1,0-0.1,0-0.2c0-0.1,0-0.2,0-0.2c0-0.1,0-0.1,0-0.1c0-0.2,0-0.3,0.1-0.4c0-0.1,0-0.1,0-0.2
		c0-0.1,0-0.1,0-0.1c0,0-0.1,0-0.1,0c0,0-0.1,0-0.1,0c-0.1,0-0.3,0-0.5,0.1c-0.1,0-0.2,0-0.5,0c-0.3,0-0.6,0-0.9,0
		c-0.3,0-0.6,0-0.8,0c-0.2,0-0.4,0-0.4,0l-0.5,0c-0.1,0-0.3,0-0.4,0s-0.3,0-0.4,0c-0.1,0-0.2,0-0.2,0.1c0,0,0,0.1,0.1,0.1
		c0.1,0,0.1,0,0.2,0c0.1,0,0.1,0,0.2,0c0.2,0,0.3,0.1,0.4,0.2c0.1,0.1,0.1,0.2,0.1,0.4c0,0.1,0,0.2,0,0.3c0,0.1,0,0.2,0,0.4
		c0,0.2,0,0.4,0,0.7c0,0.3,0,0.6,0,1.1L128.7,68.6L128.7,68.6z M139.8,70.6c-0.1,0.3-0.2,0.5-0.4,0.7c-0.1,0.2-0.3,0.3-0.6,0.3
		c0,0-0.1,0-0.2,0c-0.1,0-0.1,0-0.2,0c-0.1,0-0.1,0-0.1,0.1c0,0.1,0.1,0.1,0.2,0.1c0.1,0,0.3,0,0.4,0s0.3,0,0.4,0s0.2,0,0.3,0
		s0.1,0,0.2,0c0,0,0.1,0,0.2,0c0.1,0,0.1,0,0.2,0s0.2,0,0.3,0c0.1,0,0.2,0,0.2,0c0.1,0,0.2,0,0.2-0.1c0,0,0-0.1-0.1-0.1h-0.1
		c-0.1,0-0.2,0-0.3-0.1s-0.1-0.1-0.1-0.3c0-0.2,0.1-0.5,0.2-0.8l0.7-2c0-0.1,0.1-0.1,0.1-0.1h2.4c0,0,0.1,0,0.1,0.1l1.1,2.8
		c0,0.1,0,0.2,0,0.2c0,0.1-0.1,0.1-0.1,0.1c-0.1,0-0.1,0-0.1,0.1s0,0.1,0.1,0.1c0.1,0,0.1,0,0.3,0c0.2,0,0.4,0,0.6,0
		c0.2,0,0.4,0,0.5,0c0.2,0,0.3,0,0.4,0c0.1,0,0.2,0,0.3,0c0.1,0,0.1,0,0.2,0c0,0,0.1,0,0.1-0.1c0,0,0-0.1-0.1-0.1
		c-0.1,0-0.1,0-0.2,0c-0.1,0-0.2,0-0.2-0.1c-0.1,0-0.1,0-0.2-0.1c-0.1,0-0.1-0.1-0.2-0.2c-0.1-0.1-0.2-0.2-0.3-0.4
		c-0.1-0.2-0.2-0.4-0.3-0.6c-0.1-0.3-0.3-0.6-0.4-1.1s-0.4-0.9-0.5-1.4c-0.2-0.5-0.4-1-0.6-1.5c-0.2-0.5-0.4-0.9-0.5-1.4
		c-0.2-0.4-0.3-0.8-0.4-1.1c-0.1-0.3-0.2-0.5-0.2-0.5c-0.1-0.2-0.1-0.3-0.1-0.3c0,0-0.1-0.1-0.1-0.1c0,0-0.1,0-0.1,0.1
		c0,0.1-0.1,0.2-0.1,0.4L139.8,70.6L139.8,70.6z M141.4,68.1C141.3,68.1,141.3,68.1,141.4,68.1l1-3.2c0.1-0.2,0.1-0.2,0.2,0l1.1,3.1
		c0,0.1,0,0.1,0,0.1H141.4L141.4,68.1z"/>
	<path d="M153.8,68.6c0,0.5,0,1,0,1.5c0,0.4,0,0.8-0.1,1c0,0.2-0.1,0.3-0.1,0.4c0,0.1-0.1,0.2-0.2,0.2c-0.1,0-0.1,0-0.2,0
		c-0.1,0-0.1,0-0.2,0c-0.1,0-0.1,0-0.1,0.1c0,0.1,0.1,0.1,0.2,0.1c0.1,0,0.2,0,0.3,0c0.1,0,0.2,0,0.4,0s0.2,0,0.3,0s0.1,0,0.1,0
		c0,0,0.1,0,0.2,0s0.2,0,0.3,0s0.3,0,0.4,0c0.2,0,0.3,0,0.5,0c0.1,0,0.2,0,0.2-0.1c0,0,0-0.1-0.1-0.1c-0.1,0-0.1,0-0.2,0
		s-0.2,0-0.3,0c-0.2,0-0.3-0.1-0.3-0.2c-0.1-0.1-0.1-0.3-0.1-0.4c0-0.2,0-0.6-0.1-1c0-0.4,0-0.9,0-1.5v-0.3c0-0.1,0-0.1,0.1-0.1
		l1.4,0c0.1,0,0.1,0,0.1,0.1c0.1,0.1,0.1,0.2,0.2,0.3c0.1,0.1,0.2,0.3,0.3,0.4c0.1,0.2,0.2,0.3,0.3,0.5c0.1,0.2,0.2,0.3,0.4,0.5
		c0.3,0.4,0.6,0.8,0.8,1.1c0.2,0.3,0.5,0.5,0.7,0.6c0.1,0.1,0.3,0.1,0.5,0.2c0.2,0,0.4,0,0.7,0h0.8c0.1,0,0.2,0,0.2,0s0.1,0,0.1-0.1
		c0,0,0-0.1-0.1-0.1c0,0-0.1,0-0.2,0c-0.1,0-0.2,0-0.3,0c-0.1,0-0.3-0.1-0.6-0.2c-0.2-0.1-0.5-0.3-0.8-0.6c-0.3-0.4-0.7-0.8-1.1-1.3
		c-0.4-0.5-0.8-1-1.3-1.6c0.5-0.5,0.9-0.9,1.1-1.3c0.2-0.4,0.3-0.9,0.3-1.3c0-0.2,0-0.4-0.1-0.5c-0.1-0.2-0.1-0.3-0.2-0.4
		c-0.1-0.1-0.2-0.2-0.3-0.3c-0.1-0.1-0.2-0.2-0.2-0.2c-0.3-0.2-0.6-0.4-1-0.4c-0.4-0.1-0.7-0.1-1.1-0.1c-0.1,0-0.2,0-0.3,0
		c-0.1,0-0.3,0-0.4,0c-0.1,0-0.3,0-0.4,0c-0.1,0-0.2,0-0.2,0c0,0-0.1,0-0.2,0c-0.1,0-0.2,0-0.3,0c-0.1,0-0.3,0-0.4,0
		c-0.1,0-0.3,0-0.4,0c-0.1,0-0.2,0-0.2,0.1c0,0,0,0.1,0.1,0.1c0.1,0,0.1,0,0.2,0c0.1,0,0.1,0,0.2,0c0.2,0,0.3,0.1,0.4,0.2
		s0.1,0.2,0.1,0.4c0,0.1,0,0.2,0,0.3c0,0.1,0,0.2,0,0.4c0,0.2,0,0.4,0,0.7c0,0.3,0,0.6,0,1.1L153.8,68.6L153.8,68.6z M154.7,63.8
		c0-0.1,0-0.1,0.1-0.1c0.1,0,0.2,0,0.3,0c0.1,0,0.3,0,0.5,0c0.6,0,1.1,0.2,1.4,0.6c0.3,0.4,0.5,1,0.5,1.7c0,0.4-0.1,0.8-0.2,1.1
		c-0.1,0.3-0.3,0.5-0.5,0.7c-0.1,0.1-0.3,0.1-0.4,0.2s-0.3,0-0.4,0c-0.2,0-0.5,0-0.7-0.1c-0.2,0-0.4-0.1-0.5-0.1
		c-0.1,0-0.1-0.1-0.1-0.1L154.7,63.8L154.7,63.8z"/>
	<path class="st0" d="M105.8,37.8c0.8,0,1.6-0.1,2.2-0.3c0.6-0.2,1.2-0.4,1.7-0.7c0.4-0.2,0.7-0.4,0.9-0.6c0.3-0.2,0.6-0.5,0.9-0.8
		c0.6,0.5,1.1,0.9,1.5,1.1c0.4,0.3,0.8,0.5,1.1,0.6c0.3,0.1,0.6,0.2,0.9,0.3s0.7,0.1,1.1,0.1h2.2c0.1,0,0.2,0,0.3,0
		c0.1,0,0.1-0.1,0.1-0.1c0-0.1-0.1-0.2-0.3-0.2c-0.4,0-0.9-0.1-1.4-0.3c-0.5-0.2-0.9-0.4-1.3-0.6c-0.3-0.2-0.7-0.4-1.2-0.8
		c-0.6-0.4-1.3-0.9-1.9-1.4c1.5-2,2.3-4.3,2.6-5.3l1.6,1.4l-0.1-5.7l-4,4.1l2.1,0.1c-0.8,2.1-2,3.8-2.8,4.9
		c-0.3-0.2-0.6-0.5-0.8-0.7c-0.4-0.4-0.8-0.7-1.2-1.2c-0.4-0.4-0.8-0.8-1.2-1.2c-0.4-0.4-0.7-0.7-0.9-0.9c-0.6-0.6-1.1-1.2-1.5-1.7
		s-0.8-1-1.1-1.4s-0.5-0.9-0.7-1.3c-0.2-0.4-0.2-0.8-0.2-1.3c0-0.5,0.1-1,0.3-1.3c0.2-0.4,0.4-0.7,0.7-0.9c0.3-0.2,0.6-0.4,0.9-0.5
		c0.3-0.1,0.7-0.2,1-0.2c0.5,0,0.9,0.1,1.3,0.3s0.7,0.4,0.9,0.7c0.3,0.3,0.5,0.6,0.6,1s0.1,0.7,0.1,1c0,0.2,0,0.3,0,0.3
		c0,0.1,0.1,0.1,0.1,0.1c0,0,0.1,0,0.1-0.1c0,0,0.1-0.1,0.1-0.3c0-0.1,0-0.2,0.1-0.5s0-0.5,0.1-0.7c0-0.3,0-0.5,0-0.8
		c0-0.3,0-0.5,0-0.6c0-0.1,0-0.2,0-0.3c0-0.1-0.1-0.2-0.2-0.2c-0.3-0.2-0.7-0.3-1.2-0.4c-0.5-0.1-1-0.2-1.6-0.2
		c-0.7,0-1.4,0.1-2,0.4c-0.6,0.3-1.1,0.6-1.5,1c-0.4,0.4-0.7,0.8-1,1.3c-0.2,0.5-0.3,1-0.3,1.4c0,0.5,0.1,1,0.2,1.5
		c0.2,0.5,0.4,1,0.9,1.6c-0.4,0.3-0.9,0.6-1.3,0.9c-0.4,0.4-0.8,0.8-1.1,1.2c-0.3,0.4-0.6,0.9-0.8,1.5c-0.2,0.5-0.3,1.1-0.3,1.8
		c0,0.5,0.1,1,0.3,1.6c0.2,0.6,0.5,1.1,1,1.6c0.4,0.5,1,0.9,1.7,1.2C104,37.6,104.8,37.8,105.8,37.8L105.8,37.8z M106.6,36.6
		c-0.6,0-1.2-0.1-1.8-0.4s-1-0.6-1.4-1c-0.4-0.4-0.7-0.9-1-1.5c-0.2-0.6-0.3-1.2-0.3-1.9c0-0.9,0.2-1.6,0.6-2.3
		c0.4-0.6,0.9-1.1,1.4-1.5c0.2,0.2,0.3,0.5,0.6,0.8c0.2,0.3,0.5,0.6,0.8,0.9s0.5,0.6,0.7,0.8c0.2,0.3,0.4,0.5,0.6,0.6
		c0.1,0.2,0.4,0.4,0.7,0.7c0.3,0.3,0.7,0.7,1.1,1c0.4,0.4,0.8,0.7,1.2,1.1c0.4,0.4,0.8,0.7,1.1,0.9c-0.2,0.2-0.4,0.4-0.7,0.6
		c-0.3,0.2-0.6,0.4-0.9,0.5c-0.4,0.2-0.7,0.3-1.2,0.4C107.6,36.6,107.1,36.6,106.6,36.6L106.6,36.6z"/>
</g>
</svg>
