<?xml version="1.0" encoding="utf-8"?>
<!-- Generator: Adobe Illustrator 20.1.0, SVG Export Plug-In . SVG Version: 6.00 Build 0)  -->
<svg version="1.1" id="Layer_1" xmlns="http://www.w3.org/2000/svg" xmlns:xlink="http://www.w3.org/1999/xlink" x="0px" y="0px"
	 viewBox="0 0 125 158" style="enable-background:new 0 0 125 158;" xml:space="preserve">
<style type="text/css">
	.st0{fill:#FFFFFF;}
</style>
<path d="M62.3,157.9c-30.6,0-56-22.1-61.3-51.1c-1.4-7.8-1.3-15.3,0.3-23C8.1,51.9,39.8,19.4,62.3,0c17.9,15.5,52.4,50.4,60.6,80.1
	c2.3,8.4,2.2,18.1,0.7,26.6C118.5,135.8,92.6,157.9,62.3,157.9L62.3,157.9z"/>
<path class="st0" d="M56,121.9c2.7,0,5-0.3,7.1-1c2.1-0.7,3.9-1.4,5.4-2.3c1.2-0.7,2.2-1.4,3-2c1-0.8,1.9-1.6,2.8-2.5
	c2,1.6,3.6,2.8,4.9,3.7c1.3,0.9,2.5,1.6,3.6,2c1,0.5,2.1,0.8,3.1,0.9s2.2,0.2,3.5,0.2h7.1c0.3,0,0.6-0.1,0.9-0.1
	c0.2-0.1,0.4-0.2,0.4-0.4c0-0.3-0.3-0.5-1-0.5c-1.3,0-2.8-0.3-4.4-0.9c-1.7-0.6-3.1-1.2-4.2-1.9c-1-0.6-2.3-1.4-4-2.5
	c-1.9-1.3-4.1-2.9-6.2-4.6c4.8-6.5,7.4-13.8,8.5-17.1l5.2,4.5l-0.4-18.6l-13,13.4l6.9,0.2c-2.7,6.9-6.4,12.5-9.1,16
	c-0.9-0.8-1.8-1.6-2.7-2.3c-1.3-1.2-2.6-2.4-4-3.7c-1.4-1.3-2.8-2.6-4-3.9c-1.3-1.3-2.2-2.2-2.9-2.9c-1.9-2-3.6-3.9-5-5.6
	c-1.4-1.7-2.6-3.2-3.6-4.7c-1-1.5-1.7-2.9-2.2-4.2c-0.5-1.4-0.7-2.7-0.7-4.2c0-1.7,0.3-3.2,0.8-4.4c0.6-1.2,1.3-2.2,2.1-2.9
	c0.9-0.8,1.9-1.3,2.9-1.7c1.1-0.4,2.2-0.5,3.3-0.5c1.6,0,3,0.3,4.2,1c1.2,0.7,2.2,1.4,3.1,2.2c0.9,1,1.5,2,1.8,3.1s0.4,2.1,0.4,3.1
	c0,0.5,0,0.9,0.1,1.1c0,0.2,0.2,0.3,0.4,0.3c0.1,0,0.3-0.1,0.4-0.2c0.1-0.1,0.2-0.5,0.3-1c0-0.3,0.1-0.8,0.2-1.5
	c0.1-0.7,0.1-1.5,0.2-2.3c0-0.8,0.1-1.7,0.1-2.5c0-0.8,0-1.5,0-2.1c0-0.4-0.1-0.8-0.1-1.1c-0.1-0.3-0.4-0.5-0.8-0.8
	c-1-0.5-2.2-1-3.7-1.3c-1.5-0.3-3.2-0.5-5.1-0.5c-2.4,0-4.6,0.4-6.5,1.3C53,67,51.4,68,50,69.3c-1.4,1.3-2.4,2.8-3.1,4.3
	c-0.7,1.6-1.1,3.1-1.1,4.6c0,1.7,0.3,3.3,0.8,4.8c0.5,1.6,1.4,3.3,2.8,5.2c-1.4,0.8-2.8,1.8-4.1,2.9c-1.3,1.1-2.5,2.4-3.6,3.9
	c-1,1.5-1.9,3.1-2.5,4.8c-0.6,1.8-0.9,3.7-0.9,5.9c0,1.6,0.3,3.3,1,5.2c0.7,1.9,1.7,3.6,3.1,5.2c1.4,1.6,3.2,3,5.5,4
	C50.1,121.3,52.8,121.9,56,121.9L56,121.9z M58.6,118c-2,0-3.9-0.4-5.7-1.2c-1.8-0.8-3.3-1.9-4.6-3.2c-1.3-1.4-2.3-3-3.1-4.9
	s-1.1-4-1.1-6.3c0-2.9,0.6-5.4,1.9-7.3c1.2-2,2.8-3.6,4.7-4.9c0.5,0.7,1.1,1.6,1.9,2.5c0.8,1,1.6,1.9,2.4,2.9c0.8,1,1.6,1.9,2.4,2.7
	c0.8,0.9,1.4,1.5,1.9,2c0.5,0.5,1.3,1.3,2.3,2.3c1,1,2.2,2.1,3.5,3.3c1.3,1.2,2.6,2.4,3.9,3.6c1.3,1.2,2.5,2.2,3.5,3
	c-0.6,0.6-1.4,1.3-2.3,1.9c-0.9,0.7-1.9,1.2-3,1.7c-1.1,0.5-2.4,0.9-3.8,1.2C61.8,117.9,60.3,118,58.6,118L58.6,118z"/>
</svg>
